<svg xmlns="http://www.w3.org/2000/svg" fill="none" viewBox="0 0 400 400" id="Happy-Plat--Streamline-Ux" height="400" width="400"><desc>Happy Plat Streamline Illustration: https://streamlinehq.com</desc><path fill="#daedf7" stroke="#daedf7" stroke-miterlimit="10" d="M200 393.7156C300.9268 393.7156 382.7444 311.8984 382.7444 210.9716S300.9268 28.2272 200 28.2272S17.256 110.0448 17.256 210.9716S99.0732 393.7156 200 393.7156Z" stroke-width="1"></path><path fill="#45413c" d="M198.7476 383.6876C241.034 383.6876 275.3128 378.482 275.3128 372.0604C275.3128 365.6392 241.034 360.4332 198.7476 360.4332C156.462 360.4332 122.1824 365.6392 122.1824 372.0604C122.1824 378.482 156.462 383.6876 198.7476 383.6876Z" opacity=".15" stroke-width="1"></path><path fill="#daedf7" d="M271.046 349.7336C269.734 354.8736 266.7472 359.43 262.5584 362.6848C258.3688 365.9392 253.2156 367.706 247.9104 367.7068H152.0884C146.784 367.706 141.63 365.9392 137.4412 362.6848C133.2516 359.43 130.2656 354.8736 128.9532 349.7336L104.1228 252.3448C103.224 248.8204 103.1428 245.1372 103.8848 241.5772C104.6268 238.0164 106.1728 234.6724 108.404 231.8004C110.636 228.9284 113.494 226.6044 116.7608 225.0052C120.028 223.4068 123.6164 222.5756 127.2536 222.5756H272.7456C276.3824 222.5756 279.9716 223.4068 283.2388 225.0052C286.5052 226.6044 289.3636 228.9284 291.5952 231.8004C293.8268 234.6724 295.3724 238.0164 296.1144 241.5772C296.8568 245.1372 296.7748 248.8204 295.8764 252.3448L271.046 349.7336Z" stroke-width="1"></path><path fill="#6dd627" stroke="#45413c" stroke-linecap="round" stroke-linejoin="round" d="M211.1884 176.5928L270.0048 138.244L287.128 50.8828C287.5712 48.616 287.2024 46.2656 286.0864 44.2436C284.9708 42.2208 283.1784 40.656 281.0244 39.8224C279.894 39.3824 278.6916 39.1576 277.4792 39.16C275.7872 39.1596 274.1244 39.5964 272.6508 40.4268S269.9436 42.4548 269.068 43.902L200 158.0944L211.1884 176.5928Z" stroke-width="1"></path><path fill="#6dd627" stroke="#45413c" stroke-linecap="round" stroke-linejoin="round" d="M129.9904 138.244L225.7528 200.674L130.9224 43.902C130.0444 42.458 128.8096 41.2648 127.3364 40.4372C125.8628 39.61 124.2012 39.176 122.5116 39.1784C121.2988 39.1764 120.0964 39.4008 118.966 39.8408C116.8116 40.6744 115.0192 42.2392 113.9024 44.2612C112.7856 46.2832 112.416 48.634 112.858 50.9012L129.9904 138.244Z" stroke-width="1"></path><path fill="#9ceb60" stroke="#45413c" stroke-linecap="round" stroke-linejoin="round" d="M295.794 130.0296C294.1792 128.61 292.1444 127.758 289.9996 127.6028C287.8548 127.4476 285.7184 127.9984 283.9156 129.1708L140.6444 222.5756H259.0352L298.1424 141.7116C299.0824 139.7752 299.3616 137.5844 298.9372 135.4748C298.5132 133.3644 297.4092 131.452 295.794 130.0296H295.794Z" stroke-width="1"></path><path fill="#46b000" stroke="#45413c" stroke-linecap="round" stroke-linejoin="round" d="M199.9996 158.0944L229.7228 108.9544L209.74 14.0784C209.278 11.904 208.0936 9.9504 206.3796 8.5352C204.666 7.12 202.5232 6.3264 200.3012 6.2844H200.1184C197.9276 6.2832 195.7996 7.0144 194.0728 8.3624C192.3456 9.71 191.1192 11.5968 190.5884 13.722L167.8 104.8656L199.9996 158.0944Z" stroke-width="1"></path><path fill="#9ceb60" stroke="#45413c" stroke-linecap="round" stroke-linejoin="round" d="M259.3548 222.5756L116.0744 129.1796C114.2744 128.006 112.1392 127.4548 109.996 127.6096C107.8524 127.7644 105.8192 128.6172 104.2064 130.0376C102.594 131.458 101.4912 133.3676 101.0668 135.4744C100.6424 137.5808 100.92 139.7684 101.8568 141.7024L140.964 222.5664L259.3548 222.5756Z" stroke-width="1"></path><path fill="#ffffff" d="M106.2564 260.7008C106.8664 259.4608 107.5848 258.2776 108.4036 257.1648C110.6376 254.2968 113.4972 251.9776 116.764 250.3824C120.0308 248.788 123.6184 247.9608 127.2536 247.9636H272.7456C276.3824 247.9636 279.9716 248.794 283.2388 250.3932C286.5056 251.9916 289.3644 254.3156 291.5956 257.1876C292.4148 258.3004 293.1328 259.4836 293.7428 260.7236L295.8764 252.3676C296.7748 248.8436 296.8568 245.1604 296.1144 241.6C295.3724 238.0392 293.8268 234.6952 291.5952 231.8232C289.3636 228.9512 286.5052 226.6272 283.2384 225.0284C279.9716 223.4296 276.3824 222.5988 272.7456 222.5988H127.2536C123.6164 222.5988 120.028 223.4296 116.7608 225.0284C113.494 226.6272 110.6356 228.9512 108.404 231.8232C106.1728 234.6952 104.6268 238.0392 103.8848 241.6C103.1428 245.1604 103.224 248.8436 104.1228 252.3676L106.2564 260.7008Z" stroke-width="1"></path><path stroke="#45413c" stroke-linecap="round" stroke-linejoin="round" d="M271.046 349.7336C269.734 354.8736 266.7472 359.43 262.5584 362.6848C258.3688 365.9392 253.2156 367.706 247.9104 367.7068H152.0884C146.784 367.706 141.63 365.9392 137.4412 362.6848C133.2516 359.43 130.2656 354.8736 128.9532 349.7336L104.1228 252.3448C103.224 248.8204 103.1428 245.1372 103.8848 241.5772C104.6268 238.0164 106.1728 234.6724 108.404 231.8004C110.636 228.9284 113.494 226.6044 116.7608 225.0052C120.028 223.4068 123.6164 222.5756 127.2536 222.5756H272.7456C276.3824 222.5756 279.9716 223.4068 283.2388 225.0052C286.5052 226.6044 289.3636 228.9284 291.5952 231.8004C293.8268 234.6724 295.3724 238.0164 296.1144 241.5772C296.8568 245.1372 296.7748 248.8204 295.8764 252.3448L271.046 349.7336Z" stroke-width="1"></path><path stroke="#45413c" stroke-linecap="round" stroke-linejoin="round" d="M174.9088 321.358C181.322 327.464 189.838 330.8696 198.6928 330.8696C207.5484 330.8696 216.064 327.464 222.4772 321.358" stroke-width="1"></path><path stroke="#45413c" stroke-linecap="round" stroke-linejoin="round" d="M242.2364 275.5304C241.2556 273.1896 239.6048 271.1904 237.4912 269.7844C235.378 268.3788 232.8964 267.6288 230.358 267.6288C227.8196 267.6288 225.338 268.3788 223.2244 269.7844C221.1116 271.1904 219.4604 273.1896 218.4796 275.5304" stroke-width="1"></path><path stroke="#45413c" stroke-linecap="round" stroke-linejoin="round" d="M179.0616 275.5304C178.0836 273.1828 176.432 271.1772 174.3156 269.7668C172.1996 268.356 169.7128 267.6032 167.1696 267.6032S162.14 268.356 160.0236 269.7668C157.9076 271.1772 156.256 273.1828 155.2776 275.5304" stroke-width="1"></path><path fill="#ffb0ca" d="M153.3044 311.106C158.762 311.106 163.186 306.682 163.186 301.2244C163.186 295.7668 158.762 291.3424 153.3044 291.3424C147.8468 291.3424 143.4224 295.7668 143.4224 301.2244C143.4224 306.682 147.8468 311.106 153.3044 311.106Z" stroke-width="1"></path><path fill="#ffb0ca" d="M244.2144 311.106C249.672 311.106 254.0964 306.682 254.0964 301.2244C254.0964 295.7668 249.672 291.3424 244.2144 291.3424C238.7568 291.3424 234.3328 295.7668 234.3328 301.2244C234.3328 306.682 238.7568 311.106 244.2144 311.106Z" stroke-width="1"></path></svg>